<svg width="40" height="41" viewBox="0 0 40 41" fill="none" xmlns="http://www.w3.org/2000/svg">
<path d="M15.9418 16.8196C14.998 16.5446 14.0967 16.3102 13.2379 16.1165C12.884 14.9962 12.7053 13.828 12.7082 12.6532C12.7082 7.52742 16.0027 3.37195 20.0668 3.37195C24.1308 3.37195 27.4223 7.52351 27.4223 12.6501C27.4247 13.7698 27.2625 14.8838 26.941 15.9563C25.8723 16.1803 24.7337 16.468 23.5254 16.8196C21.8066 17.3212 20.4168 17.818 19.7316 18.0735C19.0504 17.818 17.6605 17.3212 15.9418 16.8196ZM5.94569 23.4555C5.09334 23.4555 4.26014 23.7083 3.55145 24.1819C2.84276 24.6554 2.29042 25.3285 1.96427 26.116C1.63813 26.9035 1.55284 27.77 1.71918 28.6059C1.88552 29.4419 2.29602 30.2097 2.89878 30.8124C3.50153 31.415 4.26946 31.8254 5.10545 31.9916C5.94144 32.1578 6.80794 32.0723 7.59536 31.746C8.38278 31.4198 9.05576 30.8673 9.52919 30.1585C10.0026 29.4497 10.2552 28.6165 10.2551 27.7641C10.2549 26.6214 9.80075 25.5254 8.9926 24.7175C8.18446 23.9095 7.08847 23.4555 5.94569 23.4555ZM34.0543 23.4555C33.2019 23.4555 32.3687 23.7083 31.66 24.1819C30.9514 24.6554 30.399 25.3285 30.0729 26.116C29.7467 26.9035 29.6614 27.77 29.8278 28.6059C29.9941 29.4419 30.4046 30.2097 31.0074 30.8124C31.6101 31.415 32.3781 31.8254 33.214 31.9916C34.05 32.1578 34.9165 32.0723 35.704 31.746C36.4914 31.4198 37.1644 30.8673 37.6378 30.1585C38.1112 29.4497 38.3638 28.6165 38.3637 27.7641C38.3635 26.6215 37.9094 25.5257 37.1015 24.7177C36.2935 23.9098 35.1977 23.4557 34.0551 23.4555H34.0543ZM28.4957 27.7641C28.4969 26.6893 28.8093 25.6378 29.3952 24.7366C29.9811 23.8355 30.8153 23.1233 31.7973 22.686V16.6274C26.759 16.6274 19.7316 19.4118 19.7316 19.4118C19.7316 19.4118 12.7043 16.6274 7.666 16.6274V22.4805C8.78121 22.8439 9.75287 23.5508 10.4419 24.5C11.1309 25.4492 11.502 26.592 11.502 27.7649C11.502 28.9378 11.1309 30.0807 10.4419 31.0299C9.75287 31.9791 8.78121 32.6859 7.666 33.0493V33.5962C12.7043 33.5962 19.7316 36.8446 19.7316 36.8446C19.7316 36.8446 26.7621 33.5985 31.7973 33.5985V32.8423C30.8153 32.405 29.9811 31.6928 29.3952 30.7917C28.8093 29.8905 28.4969 28.839 28.4957 27.7641Z" fill="#FBD200"/>
</svg>
