<svg width="41" height="41" viewBox="0 0 41 41" fill="none" xmlns="http://www.w3.org/2000/svg">
<path d="M20.3334 5.86682C17.9727 5.86682 16.0122 7.33917 15.3584 9.33456C14.645 8.99588 13.8578 8.78706 13.0018 8.78706C10.1097 8.78706 7.7652 10.9662 7.7652 13.6542C7.7652 13.7699 7.78934 13.875 7.79785 13.9888C5.34121 14.7824 3.57574 16.941 3.57574 19.4946C3.57574 22.2225 5.5909 24.5071 8.31114 25.149C9.13793 26.1486 10.4161 26.736 11.7726 26.7399C12.5598 26.7372 13.3317 26.5374 14.0071 26.1618C15.0077 27.2719 16.4464 27.9105 17.96 27.9164C19.2561 27.9149 20.5064 27.4489 21.4746 26.6068C22.6971 27.1329 24.0846 27.4123 25.4985 27.4171C27.8888 27.4147 30.1551 26.6289 31.6881 25.271C34.7404 24.872 37.0911 22.4415 37.0911 19.4946C37.0911 16.941 35.3256 14.7824 32.8689 13.9888C32.8775 13.875 32.9016 13.7699 32.9016 13.6542C32.9016 10.9662 30.5571 8.78698 27.6649 8.78698C26.809 8.78698 26.0218 8.99612 25.3084 9.33448C24.6547 7.33917 22.6941 5.86682 20.3334 5.86682ZM15.0204 20.2508C15.754 20.2508 16.3487 20.8455 16.3487 21.5791C16.3487 22.3127 15.754 22.9074 15.0204 22.9074C14.2868 22.9074 13.6923 22.3126 13.6923 21.5791C13.6923 20.8455 14.2868 20.2509 15.0204 20.2508ZM20.3334 20.2508C21.067 20.2508 21.6617 20.8455 21.6617 21.5791C21.6617 22.3127 21.067 22.9074 20.3334 22.9074C19.5998 22.9074 19.0051 22.3127 19.0051 21.5791C19.0051 20.8455 19.5998 20.2508 20.3334 20.2508ZM25.6464 20.2508C26.38 20.2508 26.9745 20.8456 26.9745 21.5791C26.9745 22.3127 26.38 22.9073 25.6464 22.9074C24.9128 22.9074 24.3181 22.3127 24.3181 21.5791C24.3181 20.8455 24.9128 20.2508 25.6464 20.2508ZM4.39192 27.8003C4.16629 28.2795 4.34739 28.8425 4.79918 29.0667C4.79574 29.0727 4.79236 29.0788 4.78903 29.0849C4.55496 29.5803 4.74762 30.1625 5.21942 30.3854C5.62145 30.5739 6.10723 30.4431 6.3866 30.0709C6.43999 30.1058 6.4953 30.1372 6.55254 30.165C7.35731 30.5453 8.3334 30.1684 8.73262 29.3232C9.13184 28.4781 8.67012 27.4988 7.99825 27.1047C6.94207 26.4856 4.62785 26.9553 4.39192 27.8003ZM7.3166 32.2355C6.90035 32.2275 6.51114 32.4246 6.29551 32.7524C5.96215 33.259 6.13824 33.9184 6.68887 34.2251C6.80312 34.2875 6.92656 34.3312 7.05457 34.3548C7.03153 34.7854 7.27137 35.197 7.67825 35.4251C8.28707 35.7642 9.07301 35.5946 9.43371 35.0464C9.56793 34.8421 9.62895 34.6039 9.60848 34.3643C9.76473 34.2715 9.89629 34.1474 9.99317 34.0013C10.3461 33.4648 10.1596 32.7666 9.57653 32.4418C9.11692 32.1866 8.53067 32.2342 8.12668 32.5595C8.05703 32.4938 7.97948 32.437 7.89582 32.3904C7.7183 32.2923 7.51943 32.2391 7.3166 32.2355Z" fill="#FBD200"/>
</svg>
