<svg width="51" height="41" viewBox="0 0 51 41" fill="none" xmlns="http://www.w3.org/2000/svg">
<g clip-path="url(#clip0_15_477)">
<path d="M16.8276 19.2606C14.0245 20.077 12.144 22.4794 12.3331 25.0497C13.2237 24.0559 14.5839 23.1981 16.2315 22.6341L16.8276 19.2606ZM8.15185 23.1552L5.67294 9.13093C5.65028 9.00437 5.69482 8.92624 5.69169 8.9239C10.2042 6.41921 15.3104 5.095 20.4581 5.095C20.5839 5.095 20.7104 5.10828 20.837 5.10984C21.9268 4.05749 23.3159 3.32625 24.8675 3.07859C26.3433 2.84265 27.8401 2.72312 29.3347 2.66296C28.5542 1.57312 27.4222 0.769995 26.0714 0.553589C24.2034 0.255933 22.3261 0.108276 20.4573 0.108276C14.4683 0.108276 8.55888 1.62546 3.26044 4.56609C1.37216 5.61453 0.360441 7.80203 0.748723 9.99734L3.22763 24.0216C4.33935 30.3122 13.8784 35.1216 19.2003 35.1216C19.4808 35.1216 19.7276 35.0856 19.9823 35.0591C18.9261 33.7247 17.7214 31.8966 16.8964 29.7794C13.1768 28.7653 8.61044 25.7466 8.15185 23.1552ZM15.7729 12.4161C15.7159 12.0942 15.5987 11.8012 15.455 11.5255C14.8104 12.2216 13.8401 12.7559 12.6956 12.9567C11.5511 13.1583 10.4558 12.988 9.61122 12.5528C9.5706 12.8606 9.56122 13.1762 9.61825 13.4981C9.91825 15.1934 11.5386 16.3255 13.2386 16.027C14.9378 15.7286 16.0729 14.1114 15.7729 12.4161ZM48.0729 9.55359C41.1214 5.69578 33.1175 4.28718 25.262 5.54187C23.1284 5.8825 21.4276 7.59343 21.0401 9.78875L18.5612 23.813C17.3589 30.6137 26.005 39.1466 30.9292 40.0122C35.8534 40.8786 46.9034 35.8098 48.1058 29.0091L50.5847 14.9848C50.9729 12.7887 49.9612 10.6012 48.0729 9.55359ZM26.7261 17.1161C27.0261 15.4208 28.6464 14.2887 30.3464 14.588C32.0464 14.8872 33.1808 16.5036 32.8815 18.1989C32.8245 18.5208 32.7073 18.8137 32.5636 19.0895C31.919 18.3934 30.9487 17.8591 29.8042 17.6583C28.6597 17.4567 27.5644 17.627 26.7198 18.0622C26.6784 17.7536 26.669 17.438 26.7261 17.1161ZM32.2315 32.6442C27.8815 31.8794 24.9253 28.0137 25.2753 23.8239C26.8847 25.8192 29.6667 27.4309 33.0479 28.0255C36.4292 28.62 39.5964 28.0544 41.7925 26.7286C40.6847 30.7864 36.5808 33.4091 32.2315 32.6442ZM42.4112 20.8208C41.7667 20.1247 40.7956 19.5903 39.6511 19.3895C38.5065 19.188 37.4112 19.3583 36.5667 19.7934C36.5261 19.4856 36.5167 19.17 36.5737 18.8481C36.8737 17.1528 38.494 16.0208 40.194 16.3192C41.8933 16.6184 43.0284 18.2348 42.7292 19.9302C42.6722 20.2528 42.555 20.5458 42.4112 20.8208Z" fill="#FBD200"/>
</g>
<defs>
<clipPath id="clip0_15_477">
<rect width="50" height="40" fill="white" transform="translate(0.666687 0.108276)"/>
</clipPath>
</defs>
</svg>
