<svg width="41" height="41" viewBox="0 0 41 41" fill="none" xmlns="http://www.w3.org/2000/svg">
<path d="M31.2333 23.0933L22.0683 7.11828C21.839 6.71994 21.5335 6.37068 21.1691 6.09043C20.8048 5.81018 20.3888 5.60444 19.945 5.48495C19.042 5.24345 18.0802 5.36614 17.2667 5.82661L15.2733 6.98661C15.2224 7.0086 15.1777 7.04297 15.1433 7.08661L15.0283 7.23162C14.9077 7.36013 14.8232 7.51825 14.7833 7.68995C14.0726 9.85954 13.1875 11.9681 12.1367 13.9949C11.3982 15.2425 10.4015 16.3176 9.21335 17.1483L6.22334 19.7949C5.61727 20.3357 5.21392 21.0671 5.08001 21.8683C4.99485 22.4135 5.02839 22.9706 5.17834 23.5016C4.76834 23.7283 4.41168 24.0416 4.13334 24.4183C3.8514 24.7874 3.64574 25.2089 3.52834 25.6583C3.43993 26.1168 3.43993 26.5881 3.52834 27.0466C3.65533 27.9682 4.13738 28.8037 4.87168 29.3749C5.23834 29.6549 5.66001 29.8583 6.11001 29.9716C6.40334 30.0505 6.70279 30.0883 7.00834 30.0849C7.17057 30.1016 7.3339 30.1016 7.49834 30.0849C7.95168 30.0299 8.38668 29.8733 8.77168 29.6283C9.13168 30.0333 9.58668 30.3416 10.095 30.5283C10.49 30.6833 10.9117 30.7616 11.3367 30.7549C11.5689 30.7605 11.7978 30.7333 12.0233 30.6733L14.685 35.4283C15.0028 35.9609 15.4523 36.4029 15.9902 36.7117C16.5281 37.0205 17.1364 37.1858 17.7567 37.1916C18.532 37.1822 19.2832 36.9204 19.8964 36.4458C20.5096 35.9713 20.9514 35.3098 21.155 34.5616C21.3854 33.6577 21.2627 32.6999 20.8117 31.8833L18.8183 28.4199C19.3561 28.2999 19.9006 28.2344 20.4517 28.2233C22.7767 28.3216 25.0883 28.6166 27.3617 29.1066H27.9333L28.195 28.9899L28.44 28.8433L30.1883 27.8316C30.9917 27.3666 31.58 26.6033 31.8217 25.7083C31.973 24.7933 31.762 23.8553 31.2333 23.0933ZM11.4183 28.3549C11.1859 28.4366 10.9325 28.4366 10.7 28.3549C10.4701 28.2732 10.2781 28.1102 10.16 27.8966L7.67668 23.5516L7.51501 23.2733C7.38929 23.0533 7.34334 22.7967 7.38495 22.5468C7.42655 22.2969 7.55314 22.069 7.74335 21.9016L9.58835 20.2683L10.275 21.4766L13.82 27.6849L11.4183 28.3549ZM29.2083 25.0883C29.1281 25.3662 28.9476 25.6043 28.7017 25.7566L27.7867 26.2799L17.56 8.45661L18.4917 7.91828C18.6109 7.84728 18.7436 7.80187 18.8813 7.78494C19.0191 7.76801 19.1588 7.77993 19.2917 7.81995C19.4278 7.85384 19.5557 7.91467 19.6679 7.99883C19.7801 8.08299 19.8744 8.18878 19.945 8.30995L29.11 24.2699C29.1915 24.4063 29.2425 24.5587 29.2595 24.7167C29.2764 24.8746 29.259 25.0344 29.2083 25.1849V25.0883ZM28.7833 15.3833C28.5686 15.3869 28.3568 15.3329 28.17 15.2268C27.9833 15.1206 27.8284 14.9663 27.7217 14.7799C27.5711 14.5031 27.533 14.179 27.6152 13.8748C27.6975 13.5706 27.8938 13.3098 28.1633 13.1466L32.2467 10.7766C32.5226 10.6218 32.8482 10.5813 33.1536 10.6639C33.4589 10.7464 33.7198 10.9455 33.88 11.2183C34.0306 11.4951 34.0687 11.8193 33.9865 12.1235C33.9042 12.4276 33.7079 12.6884 33.4383 12.8516L29.355 15.2199C29.1818 15.3228 28.9848 15.3791 28.7833 15.3833ZM36.3133 21.1666H31.5933C31.4325 21.1666 31.2732 21.1349 31.1246 21.0734C30.9759 21.0118 30.8409 20.9216 30.7271 20.8078C30.6134 20.6941 30.5232 20.559 30.4616 20.4104C30.4 20.2618 30.3683 20.1025 30.3683 19.9416C30.3683 19.7807 30.4 19.6215 30.4616 19.4728C30.5232 19.3242 30.6134 19.1892 30.7271 19.0754C30.8409 18.9617 30.9759 18.8714 31.1246 18.8099C31.2732 18.7483 31.4325 18.7166 31.5933 18.7166H36.3133C36.6382 18.7166 36.9498 18.8457 37.1796 19.0754C37.4093 19.3051 37.5383 19.6167 37.5383 19.9416C37.5383 20.2665 37.4093 20.5781 37.1796 20.8078C36.9498 21.0376 36.6382 21.1666 36.3133 21.1666ZM24.9283 9.55161C24.7156 9.55336 24.5063 9.49688 24.3233 9.38828C24.0483 9.23022 23.8464 8.97049 23.761 8.66501C23.6756 8.35953 23.7135 8.03272 23.8667 7.75495L26.2183 3.63828C26.3875 3.37043 26.6538 3.17842 26.9614 3.10248C27.269 3.02653 27.594 3.07254 27.8684 3.23086C28.1428 3.38918 28.3454 3.64754 28.4336 3.95183C28.5218 4.25611 28.4889 4.58273 28.3417 4.86328L25.99 8.96328C25.88 9.1457 25.7241 9.29605 25.5378 9.3993C25.3515 9.50254 25.1413 9.55506 24.9283 9.55161Z" fill="#FBD200"/>
</svg>
