<svg width="118" height="63" viewBox="0 0 118 63" fill="none" xmlns="http://www.w3.org/2000/svg">
<path d="M34.1141 0.0128249C34.1416 -0.00114263 34.1735 -0.00381866 34.2029 0.005374C34.2323 0.0145667 34.257 0.0348986 34.2716 0.0620236V0.0718618C34.498 0.497366 34.5464 0.995297 34.4062 1.45645C34.266 1.91761 33.9487 2.30434 33.5238 2.53183L33.4942 2.55151C33.0687 2.77793 32.5708 2.82635 32.1096 2.68616C31.6485 2.54597 31.2618 2.22861 31.0343 1.80368L31.0244 1.79384C31.0105 1.76637 31.0078 1.73453 31.017 1.70511C31.0262 1.67569 31.0465 1.65104 31.0736 1.6364L34.1141 0.0128249Z" fill="#FBD100"/>
<path d="M76.7997 3.44696C76.8784 3.44696 76.9506 3.46664 77.0162 3.506C82.5987 6.68757 88.0008 9.87897 93.2225 13.0802C93.2903 13.123 93.3462 13.1825 93.3847 13.2529C93.4232 13.3232 93.4429 13.402 93.4419 13.4814C93.4409 13.5609 93.4192 13.6382 93.379 13.7059C93.3389 13.7736 93.2815 13.8292 93.2127 13.8674L89.3554 16.1011C89.1491 16.2175 88.9162 16.277 88.6809 16.2736C88.4456 16.2701 88.2164 16.2038 88.0172 16.0814C84.2715 13.7723 80.7127 11.6305 77.3409 9.65593C77.2622 9.61001 77.0654 9.58705 76.7505 9.58705C76.4356 9.58049 76.2389 9.60017 76.1601 9.64609C72.7555 11.5681 69.1607 13.6509 65.3756 15.8944C65.1746 16.0138 64.9445 16.0768 64.7092 16.0768C64.4739 16.0768 64.2419 16.0138 64.0374 15.8944L60.2195 13.6017C60.1511 13.5627 60.0945 13.5063 60.0552 13.4382C60.0158 13.37 59.9951 13.2924 59.9951 13.213C59.9951 13.1335 60.0158 13.055 60.0552 12.9851C60.0945 12.9153 60.1511 12.8565 60.2195 12.8145C65.4937 9.69857 70.9483 6.59573 76.5832 3.506C76.6488 3.46664 76.721 3.44696 76.7997 3.44696Z" fill="#FBD100"/>
<path d="M30.4243 3.63387C31.2115 3.96187 32.1397 4.07011 33.209 3.95859C33.2756 3.95144 33.3428 3.96508 33.4014 3.99764C33.4599 4.03019 33.507 4.08007 33.5361 4.14043C33.5652 4.20079 33.5749 4.26867 33.5639 4.33477C33.5529 4.40087 33.5217 4.46195 33.4746 4.50963L31.5854 6.39888C31.5233 6.46145 31.4484 6.50982 31.3658 6.54067C31.2832 6.57151 31.1949 6.58409 31.107 6.57755C31.0191 6.571 30.9337 6.54548 30.8566 6.50275C30.7795 6.46001 30.7126 6.40108 30.6604 6.33001C30.1619 5.64121 29.8831 4.88354 29.824 4.05699C29.82 3.98366 29.8346 3.9105 29.8666 3.84438C29.8986 3.77827 29.9468 3.72138 30.0069 3.67906C30.0669 3.63674 30.1367 3.61039 30.2097 3.60249C30.2827 3.59459 30.3566 3.60538 30.4243 3.63387Z" fill="#FBD100"/>
<path d="M27.5313 23.8745L22.9853 26.5018C22.9266 26.5368 22.8597 26.5555 22.7914 26.5561C22.7232 26.5566 22.656 26.5389 22.5968 26.5048C22.5376 26.4707 22.4887 26.4215 22.4549 26.3621C22.4211 26.3028 22.4038 26.2355 22.4047 26.1672V6.94991C22.4038 6.88265 22.4206 6.81634 22.4534 6.75762C22.4862 6.6989 22.5339 6.64984 22.5917 6.61535L27.1377 3.9881C27.1963 3.95308 27.2632 3.93433 27.3315 3.93379C27.3998 3.93325 27.467 3.95094 27.5261 3.98504C27.5853 4.01913 27.6343 4.06839 27.6681 4.12774C27.7018 4.18709 27.7191 4.25438 27.7182 4.32266V23.54C27.7191 23.6072 27.7023 23.6735 27.6695 23.7322C27.6367 23.791 27.589 23.84 27.5313 23.8745Z" fill="#FBD100"/>
<path d="M62.0692 16.3569C68.3208 19.9386 74.7889 23.681 81.4735 27.5842C81.6443 27.6856 81.783 27.8327 81.8736 28.0085C81.9641 28.1844 82.0028 28.3818 81.9852 28.578L81.6703 32.1597C81.6652 32.2312 81.6425 32.3002 81.6041 32.3607C81.5658 32.4211 81.5131 32.4712 81.4507 32.5063C81.3883 32.5414 81.3182 32.5604 81.2466 32.5618C81.175 32.5631 81.1042 32.5467 81.0405 32.514C80.5813 32.2713 73.4966 28.214 59.7864 20.342C46.0696 12.4767 38.9914 8.40953 38.5519 8.14058C38.4919 8.1026 38.4422 8.05045 38.4071 7.98874C38.3721 7.92702 38.3527 7.85762 38.3507 7.78666C38.3488 7.7157 38.3643 7.64535 38.396 7.58181C38.4276 7.51826 38.4744 7.46347 38.5322 7.42227L41.4743 5.33621C41.6354 5.22448 41.8251 5.16061 42.0217 5.1519C42.2184 5.1432 42.414 5.19002 42.5862 5.28701C49.3299 9.08521 55.8242 12.7752 62.0692 16.3569Z" fill="#FBD100"/>
<path d="M34.37 14.7628V19.8697C34.3697 19.9316 34.3532 19.9923 34.3222 20.0458C34.2911 20.0994 34.2465 20.1438 34.1929 20.1747L29.4599 22.9102C29.4062 22.9412 29.3453 22.9576 29.2833 22.9577C29.2212 22.9578 29.1603 22.9416 29.1065 22.9107C29.0527 22.8798 29.0079 22.8353 28.9767 22.7817C28.9455 22.7281 28.9289 22.6672 28.9286 22.6052V7.72728C28.9304 7.64425 28.9614 7.56451 29.0161 7.502C29.0708 7.43948 29.1457 7.39817 29.2277 7.38528C29.3098 7.37238 29.3938 7.38873 29.465 7.43146C29.5362 7.47419 29.5901 7.54059 29.6174 7.61905L31.3886 12.7259C31.4151 12.8086 31.4712 12.8787 31.546 12.9227L34.1929 14.4578C34.2465 14.4887 34.2911 14.5332 34.3222 14.5867C34.3532 14.6402 34.3697 14.7009 34.37 14.7628Z" fill="#FBD100"/>
<path d="M33.4156 11.7616L36.5447 8.62273C36.6159 8.55167 36.7086 8.50633 36.8084 8.49385C36.9082 8.48138 37.0093 8.50249 37.0957 8.55384L81.5622 34.2261C81.6312 34.266 81.6885 34.3234 81.7283 34.3925C81.768 34.4616 81.7888 34.54 81.7885 34.6197V39.5593C81.7888 39.6389 81.7681 39.7172 81.7285 39.7862C81.6889 39.8552 81.6317 39.9126 81.5629 39.9525C81.494 39.9924 81.4159 40.0135 81.3363 40.0136C81.2567 40.0136 81.1785 39.9927 81.1095 39.9529L33.514 12.4701C33.4542 12.4357 33.403 12.3881 33.3644 12.3309C33.3258 12.2736 33.3008 12.2084 33.2913 12.14C33.2818 12.0716 33.2881 12.002 33.3096 11.9364C33.3312 11.8708 33.3674 11.8111 33.4156 11.7616Z" fill="#FBD100"/>
<path d="M76.711 10.758C76.7831 10.758 76.8553 10.7646 76.9274 10.7777C77.0324 10.7908 77.0947 10.8006 77.1144 10.8072C83.1364 14.5988 86.4098 16.6226 86.9346 16.8784C86.9956 16.907 87.0474 16.9519 87.0844 17.0081C87.1214 17.0644 87.142 17.1298 87.1441 17.1971C87.1461 17.2644 87.1295 17.3309 87.096 17.3893C87.0625 17.4477 87.0134 17.4956 86.9543 17.5278L83.1659 19.7221C82.9404 19.8532 82.6838 19.9206 82.4238 19.9171C82.1638 19.9137 81.9101 19.8395 81.69 19.7025C80.3419 18.8759 77.7737 17.1441 76.5634 17.1146C75.3531 17.085 72.6963 18.6988 71.3187 19.4565C71.0924 19.5832 70.8353 19.6456 70.5753 19.6369C70.3152 19.6282 70.062 19.5488 69.8427 19.4073L66.1626 17.0358C66.1046 17.0011 66.0574 16.9509 66.0263 16.8909C65.9952 16.8309 65.9814 16.7633 65.9865 16.6959C65.9916 16.6285 66.0154 16.5638 66.0552 16.5092C66.095 16.4545 66.1492 16.412 66.2118 16.3864C66.7497 16.1568 70.115 14.2905 76.3075 10.7875C76.3272 10.781 76.3928 10.7744 76.5043 10.7678C76.5699 10.7613 76.6388 10.758 76.711 10.758Z" fill="#FBD100"/>
<path d="M89.4439 17.3605L93.8423 14.8218C93.9007 14.7893 93.9665 14.7725 94.0334 14.7732C94.1002 14.7739 94.1657 14.7921 94.2233 14.8259C94.281 14.8597 94.3288 14.908 94.3621 14.9659C94.3954 15.0239 94.4129 15.0895 94.413 15.1564V34.3442C94.4129 34.4124 94.3946 34.4793 94.36 34.5382C94.3254 34.597 94.2758 34.6455 94.2162 34.6787L89.8178 37.2174C89.7594 37.25 89.6936 37.2667 89.6267 37.266C89.5599 37.2653 89.4944 37.2471 89.4367 37.2133C89.3791 37.1795 89.3313 37.1313 89.298 37.0733C89.2647 37.0153 89.2472 36.9497 89.2471 36.8828V17.6951C89.2472 17.6268 89.2655 17.5599 89.3 17.5011C89.3346 17.4423 89.3843 17.3937 89.4439 17.3605Z" fill="#FBD100"/>
<path d="M87.7711 38.29L83.9434 40.504C83.876 40.5441 83.7991 40.5656 83.7206 40.5662C83.6421 40.5668 83.5649 40.5466 83.4968 40.5075C83.4287 40.4685 83.3722 40.412 83.3331 40.344C83.294 40.2759 83.2737 40.1987 83.2743 40.1202V21.267C83.2738 21.1897 83.2934 21.1136 83.3314 21.0463C83.3694 20.979 83.4243 20.9228 83.4908 20.8832L87.3185 18.6693C87.386 18.6292 87.4628 18.6077 87.5413 18.6071C87.6198 18.6065 87.697 18.6267 87.7651 18.6657C87.8332 18.7048 87.8897 18.7612 87.9288 18.8293C87.9679 18.8973 87.9882 18.9745 87.9876 19.053V37.9062C87.9882 37.9835 87.9685 38.0596 87.9305 38.127C87.8925 38.1943 87.8376 38.2505 87.7711 38.29Z" fill="#FBD100"/>
<path d="M40.146 29.9949L30.2766 24.2976C30.2257 24.267 30.1835 24.2238 30.1543 24.172C30.125 24.1203 30.1096 24.0619 30.1096 24.0024C30.1096 23.943 30.125 23.8846 30.1543 23.8329C30.1835 23.7811 30.2257 23.7379 30.2766 23.7073L34.616 21.1981C34.6672 21.1696 34.7248 21.1547 34.7833 21.1547C34.8418 21.1547 34.8994 21.1696 34.9506 21.1981L40.1657 24.1992C40.2169 24.2277 40.2745 24.2426 40.333 24.2426C40.3915 24.2426 40.4491 24.2277 40.5003 24.1992L45.5777 21.267C45.63 21.2367 45.6894 21.2208 45.7498 21.2208C45.8103 21.2208 45.8697 21.2367 45.922 21.267L50.2516 23.7663C50.3025 23.7969 50.3447 23.8402 50.374 23.8919C50.4032 23.9436 50.4186 24.002 50.4186 24.0615C50.4186 24.1209 50.4032 24.1793 50.374 24.2311C50.3447 24.2828 50.3025 24.3261 50.2516 24.3567L40.4806 29.9949C40.4294 30.0234 40.3718 30.0383 40.3133 30.0383C40.2548 30.0383 40.1972 30.0234 40.146 29.9949Z" fill="#FBD100"/>
<path d="M40.1756 31.2446C40.2477 31.2446 40.3133 31.2315 40.3724 31.2053C44.105 29.1979 47.808 27.0594 51.4816 24.7897C51.5556 24.7424 51.6408 24.7165 51.7277 24.7147C51.8146 24.713 51.8998 24.7355 51.9736 24.7798L57.2281 27.8105C57.2423 27.8193 57.2541 27.8317 57.2622 27.8463C57.2704 27.8609 57.2747 27.8774 57.2747 27.8942C57.2747 27.9109 57.2704 27.9274 57.2622 27.942C57.2541 27.9567 57.2423 27.969 57.2281 27.9778C51.0749 31.5595 45.5449 34.7345 40.6381 37.5028C40.5856 37.529 40.4216 37.5422 40.1461 37.5422C39.8771 37.5422 39.7164 37.5258 39.6639 37.493C34.7833 34.6853 29.2828 31.4611 23.1624 27.8204C23.1482 27.8115 23.1364 27.7992 23.1283 27.7846C23.1201 27.7699 23.1158 27.7535 23.1158 27.7367C23.1158 27.72 23.1201 27.7035 23.1283 27.6889C23.1364 27.6742 23.1482 27.6619 23.1624 27.6531L28.4464 24.6716C28.5212 24.6288 28.6068 24.6079 28.6938 24.6114C28.7807 24.6149 28.8654 24.6425 28.9384 24.6913C32.5857 26.9938 36.2691 29.1619 39.9886 31.1954C40.0477 31.2282 40.11 31.2446 40.1756 31.2446Z" fill="#FBD100"/>
<path d="M66.0618 47.864C66.8668 46.9509 67.3046 46.0213 67.0397 45.7877C66.7747 45.5541 65.9073 46.105 65.1023 47.0181C64.2973 47.9312 63.8595 48.8608 64.1244 49.0944C64.3894 49.328 65.2568 48.7772 66.0618 47.864Z" fill="#FBD100"/>
<path d="M58.6961 46.0631L58.4599 46.064C58.1393 46.0651 57.8803 46.3259 57.8814 46.6465L57.9327 61.3276C57.9338 61.6482 58.1946 61.9072 58.5152 61.9061L58.7514 61.9053C59.072 61.9041 59.331 61.6433 59.3299 61.3227L59.2787 46.6417C59.2776 46.321 59.0167 46.062 58.6961 46.0631Z" fill="#FBD100"/>
<path d="M9.76052 54.3782C9.76052 54.798 9.47516 55.0112 8.90445 55.0178C6.48383 55.0309 4.1977 55.0506 2.04604 55.0768C1.93644 55.0768 1.83132 55.1214 1.75381 55.2007C1.67631 55.2801 1.63277 55.3877 1.63277 55.4999V60.0066C1.63277 60.1423 1.68668 60.2724 1.78263 60.3684C1.87859 60.4644 2.00874 60.5183 2.14444 60.5183H9.65228C9.78537 60.5183 9.91302 60.5711 10.0071 60.6652C10.1012 60.7594 10.1541 60.887 10.1541 61.0201V61.3645C10.1541 61.4898 10.1033 61.6099 10.0129 61.6985C9.92247 61.787 9.79983 61.8368 9.67196 61.8368H1.38677C1.07791 61.8368 0.781561 61.7148 0.562246 61.4973C0.342932 61.2799 0.21842 60.9845 0.215825 60.6757C0.215825 60.1837 0.205984 58.0977 0.186304 54.4175C0.173184 50.744 0.166626 48.6612 0.166626 48.1692C0.166583 47.862 0.287244 47.5671 0.502601 47.3481C0.717958 47.1291 1.01076 47.0034 1.31789 46.9983L9.60308 46.9195C9.66723 46.9182 9.731 46.9295 9.79066 46.9526C9.8503 46.9758 9.90463 47.0104 9.95045 47.0544C9.99628 47.0983 10.0327 47.1509 10.0575 47.2088C10.0823 47.2668 10.0951 47.329 10.0951 47.3919V47.7362C10.0951 47.8021 10.0821 47.8674 10.0569 47.9283C10.0317 47.9892 9.99469 48.0445 9.94809 48.0911C9.90149 48.1377 9.84617 48.1747 9.78528 48.1999C9.7244 48.2251 9.65914 48.2381 9.59324 48.2381L2.0854 48.307C2.01821 48.3082 1.95192 48.3227 1.89033 48.3496C1.82874 48.3766 1.77305 48.4153 1.72645 48.4638C1.67985 48.5122 1.64324 48.5693 1.61873 48.6319C1.59421 48.6945 1.58226 48.7613 1.58357 48.8285L1.62293 53.3351C1.62548 53.4456 1.67015 53.5507 1.74738 53.6279C1.82461 53.7052 1.92827 53.7484 2.0362 53.7484C4.18786 53.755 6.47399 53.755 8.89461 53.7484C9.47188 53.7484 9.76052 53.9583 9.76052 54.3782Z" fill="#FBD100"/>
<path d="M27.3837 52.3216C26.6621 52.302 26.1799 52.2364 25.9372 52.1248C25.827 52.0916 25.7312 52.0222 25.6653 51.9278C25.5994 51.8334 25.5673 51.7195 25.5741 51.6046C25.581 51.4897 25.6263 51.3804 25.7029 51.2945C25.7795 51.2086 25.8829 51.151 25.9963 51.131L27.8166 50.7866C27.8743 50.7753 27.9263 50.7437 27.964 50.6971C28.0016 50.6505 28.0225 50.5918 28.0233 50.5308V48.7694C28.0233 48.6076 28.0876 48.4525 28.202 48.3381C28.3164 48.2236 28.4715 48.1594 28.6333 48.1594H28.8892C29.0301 48.1594 29.1653 48.2153 29.2649 48.315C29.3646 48.4146 29.4205 48.5498 29.4205 48.6907V50.4619C29.4205 50.595 29.4734 50.7226 29.5675 50.8167C29.6616 50.9109 29.7893 50.9637 29.9224 50.9637H33.4746C33.5816 50.9637 33.6842 51.0062 33.7598 51.0819C33.8355 51.1576 33.878 51.2602 33.878 51.3672V51.7509C33.878 51.8918 33.821 52.027 33.7195 52.1266C33.618 52.2263 33.4803 52.2823 33.3368 52.2823H30.0405C29.8725 52.2823 29.7113 52.3494 29.5916 52.469C29.472 52.5887 29.4034 52.7514 29.4009 52.9219C29.3484 56.2477 29.4041 58.383 29.5681 59.3276C29.6122 59.5843 29.7157 59.8269 29.8716 60.0391C30.0275 60.2513 30.2322 60.4281 30.4719 60.5578C30.7115 60.6874 30.9806 60.7667 31.2609 60.7905C31.5413 60.8142 31.8264 60.7818 32.097 60.6954C32.6874 60.5117 33.163 60.4953 33.5238 60.6462C33.6272 60.6904 33.715 60.7648 33.7757 60.8596C33.8363 60.9544 33.8671 61.0652 33.8639 61.1777C33.8607 61.2902 33.8237 61.3992 33.7578 61.4904C33.6919 61.5816 33.6001 61.6509 33.4943 61.6892C29.2631 63.1455 27.915 60.6265 28.0036 56.8185C28.0626 54.2338 28.0889 52.935 28.0823 52.9219C28.0512 52.7574 27.9651 52.6084 27.8381 52.4994C27.7112 52.3903 27.5509 52.3276 27.3837 52.3216Z" fill="#FBD100"/>
<path d="M54.0006 59.3473V59.9082C54.0004 59.9454 53.9925 59.9821 53.9772 60.016C53.9619 60.0499 53.9397 60.0802 53.912 60.105C49.307 64.5821 42.2321 60.6167 44.2886 54.4766C45.207 51.7214 47.2898 50.5111 50.537 50.8457C51.3388 50.9276 52.1009 51.2378 52.7337 51.7398C53.3665 52.2419 53.8436 52.9148 54.1088 53.6796L54.5615 54.9883C54.6382 55.2151 54.6601 55.4569 54.6254 55.6937C54.5906 55.9305 54.5002 56.1554 54.3617 56.3497C54.2231 56.5441 54.0404 56.7023 53.8287 56.8112C53.617 56.9201 53.3825 56.9766 53.1445 56.9759H46.0303C45.9159 56.9757 45.8034 57.0052 45.7039 57.0616C45.6043 57.1181 45.5212 57.1994 45.4626 57.2977C45.4041 57.396 45.3721 57.5078 45.3698 57.6222C45.3676 57.7365 45.3951 57.8495 45.4497 57.9501C47.3128 61.335 49.963 61.7056 53.4004 59.062C53.456 59.0192 53.5225 58.9924 53.5923 58.9848C53.6621 58.9771 53.7324 58.9888 53.7951 59.0186C53.8577 59.0484 53.9103 59.0951 53.9466 59.1532C53.983 59.2114 54.0017 59.2786 54.0006 59.3473ZM45.6957 55.8837L52.9576 55.7656C52.9993 55.7656 53.0394 55.749 53.0689 55.7195C53.0984 55.69 53.115 55.6499 53.115 55.6082V55.5491C53.1076 55.0889 53.0064 54.6348 52.8174 54.2126C52.6284 53.7904 52.3552 53.4085 52.0134 53.0887C51.6717 52.7688 51.268 52.5173 50.8256 52.3486C50.3832 52.1798 49.9106 52.0971 49.4349 52.1052H49.1003C48.1402 52.1212 47.2256 52.5054 46.5576 53.1734C45.8896 53.8414 45.523 54.7384 45.5383 55.6672V55.7262C45.5383 55.768 45.5549 55.8081 45.5844 55.8376C45.6139 55.8671 45.654 55.8837 45.6957 55.8837Z" fill="#FBD100"/>
<path d="M74.3691 50.7472C80.4403 50.7079 79.6039 57.2219 79.6531 61.1677C79.6544 61.2551 79.6383 61.3419 79.6058 61.423C79.5732 61.5041 79.5248 61.578 79.4635 61.6402C79.4022 61.7025 79.329 61.752 79.2484 61.7857C79.1678 61.8194 79.0812 61.8368 78.9938 61.8368H78.6888C78.6349 61.8369 78.5817 61.8259 78.5321 61.8045C78.4824 61.7832 78.4375 61.7519 78.3999 61.7124C78.3623 61.673 78.3328 61.6263 78.3132 61.5749C78.2935 61.5236 78.284 61.4688 78.2853 61.4137C78.4034 58.4027 79.1316 52.0068 74.3789 52.0363C69.6262 52.0756 70.4429 58.4617 70.6102 61.4629C70.6129 61.5188 70.6045 61.5748 70.5854 61.6272C70.5664 61.6797 70.5371 61.7277 70.4993 61.7682C70.4616 61.8087 70.4162 61.8409 70.3659 61.8628C70.3156 61.8848 70.2615 61.896 70.2068 61.8958L69.9018 61.9057C69.8144 61.907 69.7276 61.8909 69.6464 61.8584C69.5653 61.8258 69.4915 61.7774 69.4292 61.7161C69.3669 61.6547 69.3175 61.5816 69.2838 61.501C69.25 61.4204 69.2326 61.3338 69.2326 61.2464C69.2326 57.3006 68.288 50.7964 74.3691 50.7472Z" fill="#FBD100"/>
<path d="M18.4689 52.056C13.7064 52.0756 14.5034 58.4716 14.6608 61.4924C14.6635 61.5475 14.6551 61.6026 14.6361 61.6543C14.6171 61.7061 14.588 61.7536 14.5504 61.7939C14.5128 61.8343 14.4675 61.8667 14.4172 61.8893C14.3669 61.9119 14.3125 61.9241 14.2574 61.9254H13.9524C13.865 61.9267 13.7782 61.9106 13.6971 61.878C13.6159 61.8455 13.5421 61.7971 13.4798 61.7358C13.4176 61.6744 13.3681 61.6013 13.3344 61.5207C13.3006 61.4401 13.2833 61.3535 13.2833 61.2661C13.2931 57.3105 12.378 50.7866 18.4689 50.7669C24.5598 50.7374 23.6939 57.2711 23.7332 61.2267C23.7332 61.3142 23.7159 61.4007 23.6821 61.4813C23.6484 61.562 23.5989 61.6351 23.5367 61.6964C23.4744 61.7578 23.4006 61.8061 23.3194 61.8387C23.2383 61.8712 23.1515 61.8873 23.0641 61.886H22.7591C22.7039 61.8848 22.6496 61.8725 22.5993 61.8499C22.549 61.8273 22.5037 61.7949 22.4661 61.7546C22.4285 61.7142 22.3993 61.6668 22.3804 61.615C22.3614 61.5632 22.353 61.5081 22.3556 61.4531C22.4836 58.4421 23.2314 52.0363 18.4689 52.056Z" fill="#FBD100"/>
<path d="M42.4191 52.3511C39.9493 51.9083 38.6307 52.6758 38.5323 55.3031C38.4405 57.5728 38.4471 59.5211 38.552 61.148C38.5574 61.2417 38.5435 61.3355 38.5113 61.4237C38.4791 61.5118 38.4292 61.5925 38.3647 61.6607C38.3002 61.7289 38.2225 61.7832 38.1362 61.8202C38.05 61.8573 37.9571 61.8763 37.8632 61.8761H37.5582C37.4434 61.8761 37.3332 61.8305 37.252 61.7493C37.1709 61.6681 37.1252 61.558 37.1252 61.4432C37.0924 58.8783 37.1121 56.6676 37.1843 54.8111C37.3024 51.8886 40.1067 49.8518 42.793 51.2491C42.9154 51.3155 43.0104 51.423 43.0612 51.5527C43.112 51.6824 43.1153 51.8258 43.0706 51.9577C43.0258 52.0896 42.9359 52.2014 42.8167 52.2734C42.6975 52.3454 42.5567 52.3729 42.4191 52.3511Z" fill="#FBD100"/>
<path d="M64.4998 50.9244H64.2636C63.9375 50.9244 63.6732 51.1887 63.6732 51.5148V61.2563C63.6732 61.5823 63.9375 61.8467 64.2636 61.8467H64.4998C64.8258 61.8467 65.0902 61.5823 65.0902 61.2563V51.5148C65.0902 51.1887 64.8258 50.9244 64.4998 50.9244Z" fill="#FBD100"/>
<path d="M92.4057 59.367V59.9279C92.4055 59.9651 92.3976 60.0018 92.3823 60.0357C92.367 60.0696 92.3448 60.0999 92.3171 60.1247C87.6924 64.5526 80.6667 60.5478 82.7626 54.4471C83.7007 51.705 85.7867 50.5144 89.0208 50.8752C89.8199 50.9621 90.5778 51.2759 91.2053 51.7797C91.8328 52.2834 92.3039 52.9562 92.5631 53.7189L93.0059 55.0276C93.0832 55.2544 93.1048 55.4964 93.069 55.7333C93.0333 55.9702 92.9411 56.1951 92.8003 56.3889C92.6595 56.5828 92.4742 56.7399 92.2599 56.8472C92.0457 56.9545 91.8089 57.0088 91.5693 57.0054L84.4846 56.9464C84.3694 56.9452 84.2558 56.9738 84.1549 57.0294C84.0541 57.085 83.9696 57.1656 83.9098 57.2631C83.8501 57.3607 83.8172 57.4718 83.8145 57.5855C83.8117 57.6991 83.8392 57.8112 83.8942 57.9107C85.7244 61.3022 88.3648 61.6925 91.8153 59.0817C91.8709 59.0417 91.9364 59.0173 92.0046 59.0112C92.0729 59.005 92.1412 59.0174 92.2022 59.0469C92.2632 59.0763 92.3144 59.1218 92.3503 59.1783C92.3862 59.2347 92.4054 59.3 92.4057 59.367ZM84.2288 55.9132L91.3725 55.8148C91.4256 55.8123 91.4757 55.7894 91.5123 55.7509C91.549 55.7124 91.5694 55.6613 91.5693 55.6082V55.5098C91.5632 55.0534 91.4627 54.6028 91.2734 54.1837C91.0842 53.7645 90.8099 53.3851 90.4663 53.0671C90.1227 52.7491 89.7165 52.4987 89.2709 52.3303C88.8253 52.1618 88.3491 52.0787 87.8695 52.0855H87.6137C86.6459 52.0991 85.7229 52.4778 85.0475 53.1384C84.3722 53.799 83.9998 54.6873 84.0123 55.6082V55.7066C84.0122 55.7346 84.0179 55.7623 84.0289 55.788C84.0399 55.8137 84.056 55.837 84.0762 55.8563C84.0965 55.8756 84.1204 55.8906 84.1467 55.9004C84.1729 55.9102 84.2008 55.9145 84.2288 55.9132Z" fill="#FBD100"/>
<path d="M104.627 60.0951C103.236 61.8269 101.491 62.4239 99.392 61.886C92.7796 60.1837 94.413 50.6193 101.153 50.8456C107.461 51.0523 106.29 57.2416 106.546 61.453C106.548 61.4947 106.542 61.5365 106.528 61.5758C106.514 61.6151 106.492 61.6511 106.464 61.6816C106.435 61.712 106.4 61.7363 106.362 61.7528C106.324 61.7693 106.282 61.7778 106.241 61.7777H105.867C105.7 61.7777 105.539 61.7114 105.421 61.5933C105.303 61.4752 105.237 61.315 105.237 61.148V60.3116C105.236 60.2409 105.214 60.1721 105.173 60.1145C105.132 60.0569 105.074 60.0133 105.008 59.9897C104.941 59.966 104.869 59.9635 104.801 59.9823C104.733 60.0012 104.672 60.0406 104.627 60.0951ZM105.207 56.4347C105.207 55.2812 104.749 54.175 103.934 53.3593C103.118 52.5437 102.012 52.0855 100.858 52.0855C99.7047 52.0855 98.5984 52.5437 97.7828 53.3593C96.9672 54.175 96.5089 55.2812 96.5089 56.4347C96.5089 57.5882 96.9672 58.6944 97.7828 59.5101C98.5984 60.3257 99.7047 60.7839 100.858 60.7839C102.012 60.7839 103.118 60.3257 103.934 59.5101C104.749 58.6944 105.207 57.5882 105.207 56.4347Z" fill="#FBD100"/>
<path d="M116.307 53.1777C114.759 51.9969 113.299 51.8428 111.928 52.7152C111.71 52.8544 111.537 53.0523 111.427 53.2862C111.317 53.52 111.276 53.7802 111.308 54.0365C111.339 54.2929 111.443 54.535 111.607 54.7347C111.771 54.9345 111.988 55.0838 112.233 55.1654C112.476 55.2506 113.568 55.5885 115.51 56.1789C121.482 58.0189 114.595 65.5366 109.921 60.2624C109.839 60.1662 109.794 60.0447 109.792 59.9186C109.791 59.7926 109.834 59.67 109.913 59.5721C109.992 59.4741 110.103 59.4069 110.227 59.382C110.35 59.3572 110.479 59.3762 110.59 59.4359L112.449 60.5084C112.926 60.7832 113.477 60.9016 114.024 60.8469C114.571 60.7922 115.087 60.5671 115.5 60.2034L116.031 59.7311C116.178 59.5933 116.287 59.4207 116.349 59.2292C116.411 59.0378 116.423 58.8338 116.385 58.6363C116.347 58.4387 116.259 58.2542 116.13 58.0997C116.001 57.9453 115.835 57.8261 115.647 57.7532C114.841 57.4384 113.512 56.9825 111.662 56.3855C111.141 56.2168 110.691 55.881 110.381 55.4307C110.071 54.9803 109.92 54.4407 109.95 53.896C110.157 50.1864 114.929 50.334 117.094 52.2823C117.195 52.3731 117.257 52.4992 117.268 52.6346C117.279 52.77 117.238 52.9045 117.153 53.0104L117.104 53.0793C117.011 53.1974 116.875 53.274 116.725 53.2924C116.576 53.3108 116.426 53.2696 116.307 53.1777Z" fill="#FBD100"/>
</svg>
